<?xml version="1.0" standalone="no"?>
<!DOCTYPE svg PUBLIC "-//W3C//DTD SVG 20010904//EN"
 "http://www.w3.org/TR/2001/REC-SVG-20010904/DTD/svg10.dtd">
<svg xmlns="http://www.w3.org/2000/svg"
 width="968.000000pt" height="968.000000pt" viewBox="0 0 968.000000 968.000000"
 preserveAspectRatio="xMidYMid meet">
<metadata>
Created by potrace 1.11, written by Peter Selinger 2001-2013
</metadata>
<g transform="translate(0.000000,968.000000) scale(0.100000,-0.100000)"
fill="#000000" stroke="none">
<path d="M1175 9669 c-414 -53 -824 -352 -1028 -748 -62 -120 -90 -196 -120
-326 l-22 -90 -1 -4200 c0 -2310 1 -4182 2 -4160 2 22 9 112 14 200 64 956
267 2093 537 3010 439 1491 1079 2661 1913 3496 544 545 1178 988 2000 1400
1409 705 3204 1201 5130 1418 42 5 -1792 8 -4140 8 -2419 0 -4245 -3 -4285 -8z"/>
</g>
</svg>
